<svg width="245" height="96" viewBox="0 0 245 96" fill="none" xmlns="http://www.w3.org/2000/svg">
<path d="M3.3091 28.969C1.5182 14.6418 12.2196 1.78786 26.6341 0.952236L43.0602 0H60.5338C72.9415 0 83 10.0584 83 22.4662V37.4436V58.7397C83 64.0703 79.5192 68.7761 74.4221 70.3364C70.0694 71.6689 66.2774 74.399 63.6331 78.1041L50.8609 96V79.6932C50.8609 78.0541 49.308 76.8599 47.7238 77.2807L28.0567 82.5047C18.9677 84.919 9.82448 78.8032 8.58586 69.481L4.99248 42.4361L3.3091 28.969Z" fill="url(#paint0_linear_394:12122)"/>
<path fill-rule="evenodd" clip-rule="evenodd" d="M31.0075 57.7399C35.5491 61.6837 41.0427 63.4284 47.4883 62.9742C51.4046 62.6983 54.9313 61.5479 58.0684 59.5229C61.2434 57.4543 63.6585 54.7833 65.3137 51.5099L55.4409 46.6709C54.7342 48.2786 53.5966 49.5887 52.0281 50.6011C50.4974 51.5699 48.7326 52.1248 46.7337 52.2656C43.3069 52.5071 40.4582 51.6419 38.1874 49.67C35.9545 47.6545 34.7159 44.913 34.4715 41.4454C34.2272 37.9778 35.0706 35.1101 37.0016 32.8422C38.9706 30.5306 41.6685 29.254 45.0952 29.0126C47.0942 28.8717 48.9208 29.194 50.575 29.9794C52.2672 30.7211 53.5744 31.8179 54.4966 33.2698L63.5977 27.1554C61.5026 24.1872 58.7383 21.9017 55.3045 20.2987C51.8708 18.6958 48.2162 18.0309 44.3407 18.304C37.8951 18.7581 32.7019 21.2764 28.7611 25.8588C24.8582 30.3975 23.1309 35.8489 23.5793 42.2129C24.0277 48.5769 26.5038 53.7526 31.0075 57.7399Z" fill="#18191F"/>
<path fill-rule="evenodd" clip-rule="evenodd" d="M52.7818 51.7803L52.7765 51.7836C51.03 52.889 49.037 53.5062 46.8321 53.6616C43.0923 53.9251 39.8614 52.9771 37.2698 50.7267L37.2597 50.7178L37.2497 50.7088C34.7063 48.4131 33.3411 45.3118 33.0756 41.5438C32.8101 37.7764 33.728 34.5283 35.9361 31.9349C38.1817 29.2987 41.2491 27.8807 44.9969 27.6166C47.2054 27.461 49.2693 27.8146 51.1561 28.7062C52.6119 29.3473 53.8411 30.2335 54.8209 31.3661L61.5845 26.822C59.7611 24.6082 57.4767 22.8571 54.7126 21.5668C51.5 20.0671 48.0836 19.4431 44.439 19.6999C38.3375 20.1298 33.5014 22.493 29.8221 26.7713C26.1766 31.0107 24.5509 36.0917 24.9753 42.1145C25.3995 48.135 27.7218 52.9597 31.93 56.6877C36.1682 60.3657 41.2866 62.0084 47.3899 61.5783C51.0824 61.3181 54.3787 60.2383 57.3067 58.349C59.8664 56.6808 61.8848 54.6068 63.3793 52.1202L56.0413 48.5236C55.2336 49.8168 54.1419 50.9023 52.787 51.7769L52.7818 51.7803ZM55.1163 47.3331C54.4049 48.6421 53.3755 49.7314 52.0281 50.6011C50.4974 51.5699 48.7326 52.1248 46.7337 52.2656C43.3069 52.5071 40.4582 51.6419 38.1874 49.67C35.9545 47.6545 34.7159 44.913 34.4715 41.4454C34.2272 37.9778 35.0706 35.1101 37.0016 32.8422C38.9706 30.5306 41.6685 29.254 45.0952 29.0126C47.0942 28.8717 48.9208 29.194 50.575 29.9794C52.1228 30.6578 53.3485 31.6333 54.2521 32.9059C54.3364 33.0246 54.4179 33.1459 54.4966 33.2698L63.5977 27.1554C63.3267 26.7716 63.0446 26.3991 62.7513 26.0381C60.7765 23.6075 58.2942 21.6944 55.3045 20.2987C51.8708 18.6958 48.2162 18.0309 44.3407 18.304C37.8951 18.7581 32.7019 21.2764 28.7611 25.8588C24.8582 30.3975 23.1309 35.8489 23.5793 42.2129C24.0277 48.5769 26.5038 53.7526 31.0075 57.7399C35.5491 61.6837 41.0427 63.4284 47.4883 62.9742C51.4046 62.6983 54.9313 61.5479 58.0684 59.5229C60.8367 57.7193 63.0273 55.4578 64.6402 52.7382C64.8772 52.3387 65.1017 51.9292 65.3137 51.5099L55.4409 46.6709C55.3413 46.8976 55.2331 47.1183 55.1163 47.3331Z" fill="#18191F"/>
<path d="M29.2316 24.9519C33.0323 20.5325 38.0341 18.0973 44.2953 17.6561C48.047 17.3918 51.5739 18.0347 54.8892 19.5824C57.966 21.0187 60.476 23.0151 62.4321 25.573L54.5924 30.84C53.626 29.5675 52.3519 28.5882 50.7883 27.901C49.0094 27.0587 47.0556 26.7197 44.9444 26.8685C41.3456 27.122 38.4497 28.4743 36.3326 30.9599L36.3325 30.96C34.2529 33.4023 33.3696 36.4739 33.6253 40.1021C33.8809 43.7307 35.1874 46.6651 37.5867 48.8308L37.5921 48.8356L37.5975 48.8403C40.0402 50.9615 43.0938 51.8711 46.6883 51.6178C48.7976 51.4692 50.6848 50.8809 52.3311 49.8389L52.3311 49.8389L52.3367 49.8353C53.7895 48.8975 54.9115 47.711 55.6863 46.2785L64.1909 50.4469C62.6147 53.2938 60.409 55.6426 57.5624 57.4975C54.5373 59.4499 51.1339 60.5626 47.3374 60.8301C41.0753 61.2714 35.7828 59.5813 31.4039 55.7801C27.0585 51.9317 24.6648 46.9441 24.2294 40.7642C23.7938 34.583 25.4666 29.3302 29.2316 24.9519ZM29.2316 24.9519L28.663 24.4628L29.2316 24.9519ZM48.7905 9.32264C48.9515 11.6078 47.2296 13.5908 44.9444 13.7519C42.6592 13.9129 40.6762 12.1909 40.5152 9.90574C40.3541 7.62057 42.0761 5.63754 44.3613 5.47652C46.6465 5.3155 48.6295 7.03747 48.7905 9.32264Z" fill="white" stroke="black" stroke-width="1.5"/>
<path fill-rule="evenodd" clip-rule="evenodd" d="M52.6837 50.3843L52.6784 50.3877C50.9319 51.4931 48.9389 52.1103 46.734 52.2656C42.9942 52.5291 39.7633 51.5811 37.1717 49.3307L37.1616 49.3219L37.1516 49.3129C34.6082 47.0171 33.243 43.9159 32.9775 40.1478C32.712 36.3804 33.6299 33.1324 35.838 30.539C38.0836 27.9027 41.151 26.4848 44.8988 26.2207C47.1073 26.0651 49.1712 26.4186 51.058 27.3102C52.5138 27.9514 53.743 28.8375 54.7228 29.9701L61.4864 25.4261C59.663 23.2122 57.3786 21.4612 54.6145 20.1708C51.4019 18.6711 47.9855 18.0472 44.3409 18.304C38.2394 18.7339 33.4033 21.0971 29.724 25.3753C26.0785 29.6147 24.4528 34.6957 24.8772 40.7186C25.3014 46.7391 27.6237 51.5637 31.8319 55.2917C36.0701 58.9697 41.1885 60.6124 47.2918 60.1824C50.9843 59.9222 54.2806 58.8423 57.2086 56.953C59.7683 55.2849 61.7867 53.2109 63.2812 50.7243L55.9432 47.1277C55.1355 48.4208 54.0438 49.5064 52.6889 50.381L52.6837 50.3843ZM55.0182 45.9372C54.3068 47.2461 53.2774 48.3355 51.93 49.2052C50.3993 50.174 48.6346 50.7288 46.6356 50.8697C43.2088 51.1111 40.3601 50.2459 38.0893 48.2741C35.8564 46.2586 34.6178 43.517 34.3734 40.0495C34.1291 36.5819 34.9725 33.7142 36.9035 31.4462C38.8725 29.1346 41.5704 27.8581 44.9971 27.6167C46.9961 27.4758 48.8227 27.7981 50.4769 28.5835C52.0247 29.2619 53.2504 30.2374 54.154 31.51C54.2383 31.6287 54.3198 31.75 54.3985 31.8739L63.4996 25.7595C63.2286 25.3756 62.9465 25.0032 62.6532 24.6422C60.6784 22.2116 58.1961 20.2984 55.2064 18.9028C51.7727 17.2999 48.1181 16.6349 44.2426 16.908C37.797 17.3622 32.6038 19.8805 28.663 24.4629C24.7601 29.0016 23.0328 34.453 23.4812 40.817C23.9297 47.1809 26.4057 52.3566 30.9094 56.344C35.451 60.2877 40.9446 62.0325 47.3902 61.5783C51.3065 61.3024 54.8332 60.1519 57.9703 58.127C60.7386 56.3234 62.9292 54.0618 64.5421 51.3423C64.7791 50.9427 65.0036 50.5333 65.2156 50.114L55.3428 45.275C55.2432 45.5016 55.135 45.7223 55.0182 45.9372Z" fill="#18191F"/>
<g filter="url(#filter0_d_394:12122)">
<path d="M67.5515 57H71.7019V46.862C71.7019 44.0724 73.3689 42.4054 75.7503 42.4054C78.1998 42.4054 79.5946 44.0044 79.5946 46.794V57H83.711V45.5353C83.711 41.3848 81.3636 38.6632 77.3152 38.6632C74.5256 38.6632 72.8586 40.1261 71.7019 41.7931V32.1654H67.5515V57ZM88.6479 57H92.7983V50.162C92.7983 45.3992 95.3158 43.0518 98.9219 43.0518H99.1601V38.6972C95.9962 38.5612 93.921 40.3982 92.7983 43.0858V39.0374H88.6479V57ZM102.803 36.2818H107.226V32.3695H102.803V36.2818ZM102.939 57H107.09V39.0374H102.939V57ZM118.627 57.3402C122.369 57.3402 125.295 55.4691 125.295 51.6929V51.6248C125.295 48.3929 122.335 47.2022 119.716 46.3858C117.606 45.7054 115.667 45.161 115.667 43.8343V43.7662C115.667 42.7796 116.586 41.9972 118.185 41.9972C119.682 41.9972 121.519 42.6436 123.254 43.6982L124.887 40.7725C122.982 39.5137 120.532 38.7313 118.287 38.7313C114.715 38.7313 111.891 40.8065 111.891 44.2425V44.3105C111.891 47.7125 114.851 48.8012 117.504 49.5496C119.614 50.196 121.519 50.6723 121.519 52.0671V52.1351C121.519 53.3258 120.498 54.0743 118.729 54.0743C116.892 54.0743 114.817 53.3258 112.844 51.863L111.006 54.6526C113.252 56.4557 116.075 57.3402 118.627 57.3402ZM135.202 57.3062C136.767 57.3062 137.889 56.966 138.91 56.3876V53.0197C138.094 53.4279 137.277 53.632 136.359 53.632C134.964 53.632 134.147 52.9856 134.147 51.3867V42.5755H138.978V39.0374H134.147V34.1045H130.031V39.0374H127.751V42.5755H130.031V52.0331C130.031 55.9794 132.174 57.3062 135.202 57.3062ZM151.978 57.3402C156.979 57.3402 160.483 54.6866 160.483 50.23V50.162C160.483 46.2157 157.898 44.4126 152.863 43.1879C148.27 42.0992 147.181 41.2828 147.181 39.4457V39.3776C147.181 37.8127 148.61 36.554 151.06 36.554C153.237 36.554 155.38 37.4045 157.524 39.0034L159.769 35.8396C157.353 33.9004 154.598 32.8458 151.128 32.8458C146.399 32.8458 142.997 35.6695 142.997 39.7519V39.8199C142.997 44.2085 145.855 45.7054 150.924 46.9301C155.346 47.9507 156.299 48.8692 156.299 50.5702V50.6383C156.299 52.4073 154.666 53.632 152.08 53.632C149.155 53.632 146.841 52.5094 144.562 50.5362L142.044 53.53C144.902 56.0815 148.338 57.3402 151.978 57.3402ZM164.894 62.4432H169.044V54.2104C170.303 55.8773 172.174 57.3742 175.168 57.3742C179.42 57.3742 183.503 54.0062 183.503 48.0527V47.9847C183.503 41.9972 179.386 38.6632 175.168 38.6632C172.242 38.6632 170.371 40.1601 169.044 42.0312V39.0374H164.894V62.4432ZM174.181 53.8021C171.392 53.8021 168.942 51.4888 168.942 48.0527V47.9847C168.942 44.5487 171.392 42.2353 174.181 42.2353C176.937 42.2353 179.318 44.5147 179.318 47.9847V48.0527C179.318 51.5908 177.005 53.8021 174.181 53.8021ZM192.923 57.3742C195.679 57.3742 197.55 56.2175 198.774 54.7547V57H202.789V46.3517C202.789 44.0044 202.176 42.0992 200.85 40.8065C199.591 39.5137 197.584 38.7993 194.896 38.7993C192.038 38.7993 190.099 39.3776 188.092 40.2622L189.215 43.4941C190.848 42.8137 192.345 42.3714 194.352 42.3714C197.243 42.3714 198.808 43.7322 198.808 46.2837V46.726C197.414 46.2837 195.985 45.9775 193.978 45.9775C189.589 45.9775 186.527 47.8826 186.527 51.7609V51.829C186.527 55.4351 189.555 57.3742 192.923 57.3742ZM194.08 54.3805C192.106 54.3805 190.576 53.3939 190.576 51.6589V51.5908C190.576 49.7197 192.14 48.5971 194.794 48.5971C196.427 48.5971 197.822 48.9032 198.876 49.3115V50.5362C198.876 52.8155 196.801 54.3805 194.08 54.3805ZM216.02 57.4082C219.524 57.4082 221.599 56.0134 223.368 54.0403L220.884 51.5908C219.558 52.9176 218.163 53.8021 216.224 53.8021C213.06 53.8021 210.849 51.2506 210.849 48.0527V47.9847C210.849 44.8549 213.06 42.2693 216.054 42.2693C218.095 42.2693 219.422 43.2219 220.68 44.5147L223.266 41.759C221.565 39.922 219.456 38.6632 216.088 38.6632C210.678 38.6632 206.732 42.9497 206.732 48.0527V48.1208C206.732 53.2238 210.678 57.4082 216.02 57.4082ZM234.888 57.4082C238.188 57.4082 240.536 56.0815 242.237 54.0403L239.821 51.897C238.393 53.2918 236.964 54.0403 234.956 54.0403C232.303 54.0403 230.228 52.4073 229.785 49.4816H242.985C243.019 49.0733 243.053 48.6991 243.053 48.3249C243.053 43.1539 240.162 38.6632 234.446 38.6632C229.309 38.6632 225.669 42.8817 225.669 48.0187V48.0868C225.669 53.632 229.683 57.4082 234.888 57.4082ZM229.751 46.76C230.126 43.9703 231.895 42.0312 234.412 42.0312C237.134 42.0312 238.699 44.1064 238.971 46.76H229.751Z" fill="white"/>
</g>
<defs>
<filter id="filter0_d_394:12122" x="67.5515" y="32.1654" width="176.502" height="32.2778" filterUnits="userSpaceOnUse" color-interpolation-filters="sRGB">
<feFlood flood-opacity="0" result="BackgroundImageFix"/>
<feColorMatrix in="SourceAlpha" type="matrix" values="0 0 0 0 0 0 0 0 0 0 0 0 0 0 0 0 0 0 127 0" result="hardAlpha"/>
<feOffset dx="1" dy="2"/>
<feComposite in2="hardAlpha" operator="out"/>
<feColorMatrix type="matrix" values="0 0 0 0 0 0 0 0 0 0 0 0 0 0 0 0 0 0 1 0"/>
<feBlend mode="normal" in2="BackgroundImageFix" result="effect1_dropShadow_394:12122"/>
<feBlend mode="normal" in="SourceGraphic" in2="effect1_dropShadow_394:12122" result="shape"/>
</filter>
<linearGradient id="paint0_linear_394:12122" x1="47.4944" y1="1.16633e-07" x2="22.8683" y2="93.9822" gradientUnits="userSpaceOnUse">
<stop stop-color="#FFA959"/>
<stop offset="0.929806" stop-color="#F87458"/>
</linearGradient>
</defs>
</svg>
